{"title":"Psi.S01E08.1080i.HDTV.H264-THoRCuATo.mkv","uid":11039695,"size":2228023270,"categoryP":"video","categoryS":"hd___tv_shows","magnet":"?xt=urn:btih:c94628b6ab5be57c17d1d2da6403c8d6afde6d58&amp;dn=Psi.S01E08.1080i.HDTV.H264-THoRCuATo.mkv&amp;tr=udp%3A%2F%2Ftracker.openbittorrent.com%3A80&amp;tr=udp%3A%2F%2Fopen.demonii.com%3A1337&amp;tr=udp%3A%2F%2Ftracker.coppersurfer.tk%3A6969&amp;tr=udp%3A%2F%2Fexodus.desync.com%3A6969","seeders":10,"leechers":1,"uploader":"pp654","files":1,"time":1410833457,"description":"Psi.S01E08.1080i.HDTV.H264-THoRCuATo.mkv\nFormat                                   : Matroska\nFormat version                           : Version 4 / Version 2\nFile size                                : 2.08 GiB\nDuration                                 : 57mn 27s\nOverall bit rate                         : 5 170 Kbps\nEncoded date                             : UTC 2014-09-15 22:12:03\nWriting application                      : mkvmerge v6.6.0 ('The Edge Of The In Between') built on Dec  1 2013 17:55:00\nWriting library                          : libebml v1.3.0 + libmatroska v1.4.1\n\nVideo\nID                                       : 1\nFormat                                   : AVC\nFormat/Info                              : Advanced Video Codec\nFormat profile                           : &lt;a class=&quot;__cf_email__&quot; href=&quot;/cdn-cgi/l/email-protection&quot; data-cfemail=&quot;cc84a5aba48c80f8e2fc&quot;&gt;[email&amp;#160;protected]&lt;/a&gt;&lt;script cf-hash='f9e31' type=&quot;text/javascript&quot;&gt;\n/* &lt;![CDATA[ */!function(){try{var t=&quot;currentScript&quot;in document?document.currentScript:function(){for(var t=document.getElementsByTagName(&quot;script&quot;),e=t.length;e--;)if(t[e].getAttribute(&quot;cf-hash&quot;))return t[e]}();if(t&amp;&amp;t.previousSibling){var e,r,n,i,c=t.previousSibling,a=c.getAttribute(&quot;data-cfemail&quot;);if(a){for(e=&quot;&quot;,r=parseInt(a.substr(0,2),16),n=2;a.length-n;n+=2)i=parseInt(a.substr(n,2),16)^r,e+=String.fromCharCode(i);e=document.createTextNode(e),c.parentNode.replaceChild(e,c)}}}catch(u){}}();/* ]]&gt; */&lt;/script&gt;\nFormat settings, CABAC                   : Yes\nFormat settings, ReFrames                : 3 frames\nCodec ID                                 : V_MPEG4/ISO/AVC\nDuration                                 : 57mn 27s\nBit rate                                 : 4 427 Kbps\nWidth                                    : 1 920 pixels\nHeight                                   : 1 080 pixels\nDisplay aspect ratio                     : 16:9\nFrame rate mode                          : Constant\nFrame rate                               : 29.940 fps\nOriginal frame rate                      : 29.970 fps\nColor space                              : YUV\nChroma subsampling                       : 4:2:0\nBit depth                                : 8 bits\nScan type                                : Interlaced\nScan order                               : Top Field First\nBits/(Pixel*Frame)                       : 0.071\nStream size                              : 1.78 GiB (86%)\nDefault                                  : Yes\nForced                                   : No\n\nAudio #1\nID                                       : 2\nFormat                                   : AC-3\nFormat/Info                              : Audio Coding 3\nMode extension                           : CM (complete main)\nFormat settings, Endianness              : Big\nCodec ID                                 : A_AC3\nDuration                                 : 57mn 27s\nBit rate mode                            : Constant\nBit rate                                 : 448 Kbps\nChannel count                            : 6 channels\nChannel positions                        : Front: L C R, Side: L R, LFE\nSampling rate                            : 48.0 KHz\nBit depth                                : 16 bits\nCompression mode                         : Lossy\nStream size                              : 184 MiB (9%)\nLanguage                                 : English\nDefault                                  : Yes\nForced                                   : No\n\nAudio #2\nID                                       : 3\nFormat                                   : AC-3\nFormat/Info                              : Audio Coding 3\nMode extension                           : CM (complete main)\nFormat settings, Endianness              : Big\nCodec ID                                 : A_AC3\nDuration                                 : 57mn 27s\nBit rate mode                            : Constant\nBit rate                                 : 192 Kbps\nChannel count                            : 2 channels\nChannel positions                        : Front: L R\nSampling rate                            : 48.0 KHz\nBit depth                                : 16 bits\nCompression mode                         : Lossy\nDelay relative to video                  : 75ms\nStream size                              : 78.9 MiB (4%)\nLanguage                                 : Spanish\nDefault                                  : No\nForced                                   : No\n------------------------------------------------------------------------\n\nsubs: http://www.subdivx.com/X6XMzk4MTIzX-psi-s01e08.html\n","torrent":{"xt":"urn:btih:c94628b6ab5be57c17d1d2da6403c8d6afde6d58","amp;dn":"Psi.S01E08.1080i.HDTV.H264-THoRCuATo.mkv","amp;tr":["udp%3A%2F%2Ftracker.openbittorrent.com%3A80","udp%3A%2F%2Fopen.demonii.com%3A1337","udp%3A%2F%2Ftracker.coppersurfer.tk%3A6969","udp%3A%2F%2Fexodus.desync.com%3A6969"],"infoHash":"c94628b6ab5be57c17d1d2da6403c8d6afde6d58","infoHashBuffer":{"type":"Buffer","data":[201,70,40,182,171,91,229,124,23,209,210,218,100,3,200,214,175,222,109,88]},"announce":[],"urlList":[]}}